<svg width="current" height="current" xmlns="http://www.w3.org/2000/svg" viewBox="0 0 473.4 156.25">
  <defs>
    <style>
      .b {
        fill: #ff0044;
      }

      <!-- .c {
        fill: #181818;
      } -->
    </style>
  </defs>
  <path class="c" d="M11.55,6.75h10.7l11.55,37.25h-9.4l-2.15-8.55H11.25l-2.15,8.55H0L11.55,6.75Zm1.4,21.8h7.6l-.8-3.15c-1-3.7-1.95-8.15-2.95-11.95h-.2c-.9,3.9-1.9,8.25-2.85,11.95l-.8,3.15Z"/>
  <path class="c" d="M37.7,6.75h13.65c7.95,0,14.55,2.75,14.55,11.75,0,5.45-2.55,8.95-6.4,10.75l8.3,14.75h-10l-6.85-13.1h-4.3v13.1h-8.95V6.75Zm12.95,17.1c4.25,0,6.55-1.85,6.55-5.35s-2.3-4.65-6.55-4.65h-4v10h4Z"/>
  <path class="c" d="M73.1,6.75h23.6v7.45h-14.65v6.9h12.45v7.5h-12.45v7.9h15.2v7.5h-24.15V6.75Z"/>
  <path class="c" d="M122.5,30.85l-11.2-24.1h9.5l3.1,8.3c1,2.8,1.95,5.4,3,8.3h.2c1.05-2.9,2.05-5.5,3.1-8.3l3.1-8.3h9.35l-11.25,24.1v13.15h-8.9v-13.15Z"/>
  <path class="c" d="M143.65,25.2c0-12.2,6.9-19.1,17.05-19.1s17.05,6.95,17.05,19.1-6.9,19.5-17.05,19.5-17.05-7.3-17.05-19.5Zm25,0c0-7.2-3.05-11.45-7.95-11.45s-7.9,4.25-7.9,11.45,3,11.8,7.9,11.8,7.95-4.6,7.95-11.8Z"/>
  <path class="c" d="M184.45,26.5V6.75h8.9V27.45c0,7.05,2.1,9.55,6.2,9.55s6.3-2.5,6.3-9.55V6.75h8.6V26.5c0,12.55-5,18.2-14.9,18.2s-15.1-5.65-15.1-18.2Z"/>
  <path class="c" d="M232.55,25.6c0-12.4,8.3-19.5,17.75-19.5,4.85,0,8.75,2.25,11.3,4.85l-4.65,5.7c-1.9-1.7-3.85-2.9-6.5-2.9-4.8,0-8.75,4.3-8.75,11.55s3.4,11.7,8.65,11.7c3,0,5.35-1.5,7.1-3.4l4.7,5.6c-3.15,3.65-7.3,5.5-12.15,5.5-9.45,0-17.45-6.5-17.45-19.1Z"/>
  <path class="c" d="M266.3,26.5V6.75h8.9V27.45c0,7.05,2.1,9.55,6.2,9.55s6.3-2.5,6.3-9.55V6.75h8.6V26.5c0,12.55-5,18.2-14.9,18.2s-15.1-5.65-15.1-18.2Z"/>
  <path class="c" d="M304.65,6.75h13.65c7.95,0,14.55,2.75,14.55,11.75,0,5.45-2.55,8.95-6.4,10.75l8.3,14.75h-10l-6.85-13.1h-4.3v13.1h-8.95V6.75Zm12.95,17.1c4.25,0,6.55-1.85,6.55-5.35s-2.3-4.65-6.55-4.65h-4v10h4Z"/>
  <path class="c" d="M340.04,6.75h8.95V44h-8.95V6.75Z"/>
  <path class="c" d="M355.85,25.2c0-12.2,6.9-19.1,17.05-19.1s17.05,6.95,17.05,19.1-6.9,19.5-17.05,19.5-17.05-7.3-17.05-19.5Zm25,0c0-7.2-3.05-11.45-7.95-11.45s-7.9,4.25-7.9,11.45,3,11.8,7.9,11.8,7.95-4.6,7.95-11.8Z"/>
  <path class="c" d="M396.65,26.5V6.75h8.9V27.45c0,7.05,2.1,9.55,6.2,9.55s6.3-2.5,6.3-9.55V6.75h8.6V26.5c0,12.55-5,18.2-14.9,18.2s-15.1-5.65-15.1-18.2Z"/>
  <path class="c" d="M432.04,39.35l5.1-6.15c2.6,2.25,6.05,3.8,9,3.8,3.3,0,4.85-1.25,4.85-3.25,0-2.15-2.05-2.85-5.25-4.2l-4.75-2c-3.9-1.55-7.55-4.8-7.55-10.2,0-6.25,5.6-11.25,13.5-11.25,4.3,0,8.85,1.65,12.1,4.9l-4.45,5.6c-2.45-1.85-4.75-2.85-7.65-2.85-2.75,0-4.4,1.1-4.4,3.05,0,2.1,2.3,2.9,5.6,4.2l4.65,1.85c4.6,1.85,7.35,4.95,7.35,10.2,0,6.2-5.2,11.65-14.2,11.65-4.85,0-10.05-1.8-13.9-5.35Z"/>
  <path class="c" d="M11.55,66.75h10.7l11.55,37.25h-9.4l-2.15-8.55H11.25l-2.15,8.55H0l11.55-37.25Zm1.4,21.8h7.6l-.8-3.15c-1-3.7-1.95-8.15-2.95-11.95h-.2c-.9,3.9-1.9,8.25-2.85,11.95l-.8,3.15Z"/>
  <path class="c" d="M37.7,66.75h13c7.7,0,13.85,2.1,13.85,9.25,0,3.3-1.85,6.9-4.85,8.05v.2c3.75,1,6.6,3.8,6.6,8.75,0,7.6-6.45,11-14.55,11h-14.05v-37.25Zm12.65,14.8c3.8,0,5.5-1.65,5.5-4.2s-1.75-3.75-5.5-3.75h-3.7v7.95h3.7Zm.75,15.6c4.3,0,6.5-1.55,6.5-4.75s-2.15-4.3-6.5-4.3h-4.45v9.05h4.45Z"/>
  <path class="c" d="M70.75,85.2c0-12.2,6.9-19.1,17.05-19.1s17.05,6.95,17.05,19.1-6.9,19.5-17.05,19.5-17.05-7.3-17.05-19.5Zm25,0c0-7.2-3.05-11.45-7.95-11.45s-7.9,4.25-7.9,11.45,3,11.8,7.9,11.8,7.95-4.6,7.95-11.8Z"/>
  <path class="c" d="M111.55,86.5v-19.75h8.9v20.7c0,7.05,2.1,9.55,6.2,9.55s6.3-2.5,6.3-9.55v-20.7h8.6v19.75c0,12.55-5,18.2-14.9,18.2s-15.1-5.65-15.1-18.2Z"/>
  <path class="c" d="M157.1,74.2h-10.05v-7.45h29.1v7.45h-10.1v29.8h-8.95v-29.8Z"/>
  <path class="b" d="M189.8,66.75h9.1l2.35,17c.5,3.9,1,7.8,1.5,11.8h.2c.7-4,1.45-7.95,2.2-11.8l3.8-17h7.55l3.85,17c.75,3.8,1.4,7.8,2.15,11.8h.25c.45-4,.95-7.95,1.4-11.8l2.45-17h8.45l-6.45,37.25h-11.25l-3.35-16.2c-.6-2.85-1.1-5.85-1.45-8.65h-.2c-.5,2.8-.95,5.8-1.5,8.65l-3.25,16.2h-11.05l-6.75-37.25Z"/>
  <path class="b" d="M240.1,66.75h8.95v14.2h12.25v-14.2h8.9v37.25h-8.9v-15.3h-12.25v15.3h-8.95v-37.25Z"/>
  <path class="b" d="M277.1,85.2c0-12.2,6.9-19.1,17.05-19.1s17.05,6.95,17.05,19.1-6.9,19.5-17.05,19.5-17.05-7.3-17.05-19.5Zm25,0c0-7.2-3.05-11.45-7.95-11.45s-7.9,4.25-7.9,11.45,3,11.8,7.9,11.8,7.95-4.6,7.95-11.8Z"/>
  <path class="b" d="M329.55,66.75h8.95v37.25h-8.95v-37.25Z"/>
  <path class="b" d="M365.35,66.75h10.7l11.55,37.25h-9.4l-2.15-8.55h-11l-2.15,8.55h-9.1l11.55-37.25Zm1.4,21.8h7.6l-.8-3.15c-1-3.7-1.95-8.15-2.95-11.95h-.2c-.9,3.9-1.9,8.25-2.85,11.95l-.8,3.15Z"/>
  <path class="b" d="M391.49,66.75h9.65l5.9,16.1c.75,2.15,1.35,4.5,2.05,6.75h.25c.75-2.25,1.35-4.6,2.05-6.75l5.7-16.1h9.7v37.25h-8.15v-12.75c0-3.7,.7-9.25,1.2-12.9h-.25l-3.1,8.9-5,13.6h-4.9l-5.05-13.6-3-8.9h-.2c.45,3.65,1.15,9.2,1.15,12.9v12.75h-8v-37.25Z"/>
  <path class="c" d="M446.94,75.5c0-2.25-1.55-3.35-3.6-3.35s-3.5,1.05-5.05,2.6l-4.9-4.5c2.75-3.15,6.55-5.25,11.05-5.25,6.25,0,11.05,2.95,11.05,9.9s-8.55,9-7.9,15.6h-7.75c-1.2-7.7,7.1-10.9,7.1-15Zm-8.55,23.65c0-3.1,2.2-5.5,5.3-5.5s5.3,2.4,5.3,5.5-2.25,5.55-5.3,5.55-5.3-2.45-5.3-5.55Z"/>
</svg>